<svg id="Layer_1" data-name="Layer 1" xmlns="http://www.w3.org/2000/svg" viewBox="0 0 55.83 62.85"><defs><style>.cls-1,.cls-3{fill:#383838;}.cls-2{fill:#fcc404;}.cls-3{font-size:20px;font-family:Lato-Medium, Lato;}</style></defs><title>icon</title><path class="cls-1" d="M47.54,30.61h-23a.93.93,0,0,0,0,1.85h23a.93.93,0,0,0,0-1.85Z"/><path class="cls-1" d="M24.52,25.09h9.21a.92.92,0,1,0,0-1.84H24.52a.92.92,0,0,0,0,1.84Z"/><path class="cls-1" d="M47.54,38h-23a.92.92,0,0,0,0,1.84h23a.92.92,0,0,0,0-1.84Z"/><path class="cls-1" d="M47.54,45.35h-23a.92.92,0,0,0,0,1.84h23a.92.92,0,0,0,0-1.84Z"/><path class="cls-1" d="M47.54,52.72h-23a.92.92,0,1,0,0,1.84h23a.92.92,0,1,0,0-1.84Z"/><path class="cls-1" d="M51.22,21V7.59H11.62V58.24h4.61v4.61h39.6V25.63Zm-8.29-5.68,8.29,8.29,1.46,1.46H42.93ZM13.47,56.4v-47H49.38v9.75l-7-7H16.23V56.4Zm4.6,4.6V14h23V26.93H54V61Z"/><circle class="cls-2" cx="16.23" cy="16.23" r="16.23"/><text class="cls-3" transform="translate(9.74 23.25)">1</text></svg>