<svg id="Layer_1" data-name="Layer 1" xmlns="http://www.w3.org/2000/svg" viewBox="0 0 90.99 64.75"><defs><style>.cls-1,.cls-5{opacity:0.2;}.cls-2,.cls-5{fill:#383838;}.cls-3{fill:none;stroke:#383838;stroke-miterlimit:10;stroke-width:4px;}.cls-4{fill:#f4f4f4;}.cls-5{font-size:20px;font-family:Lato-Medium, Lato;}</style></defs><title>icon</title><g class="cls-1"><path class="cls-2" d="M11.31,46.16a2,2,0,0,0,2-2V30.67h7.46a1,1,0,0,1,1,1V47.75a1,1,0,0,1-1,1H18.84a2,2,0,1,0,0,4h1.94a5,5,0,0,0,4.63-3.12,10.54,10.54,0,0,1,8.09,3.82l5,6a14.59,14.59,0,0,0,11.24,5.27h21a6.21,6.21,0,0,0,0-12.42H62.19a2,2,0,1,0,0,4h8.59a2.19,2.19,0,0,1,0,4.37h-21a10.58,10.58,0,0,1-8.15-3.82l-5-6A14.59,14.59,0,0,0,25.77,45.6V33.72h7.41a14,14,0,0,1,9.74,3.93L53.76,48.12A2,2,0,0,1,51.05,51l-8.51-7.81a2,2,0,0,0-2.72,3L48.34,54a6,6,0,0,0,8.22-8.74L45.71,34.76a17.93,17.93,0,0,0-12.53-5.07h-7.8a5,5,0,0,0-4.6-3.05H11.31a2,2,0,0,0-2,2v15.5A2,2,0,0,0,11.31,46.16Z"/><circle class="cls-2" cx="11.31" cy="50.73" r="2"/><path class="cls-3" d="M72.71,23.16a3.2,3.2,0,0,1-5.91,0,8.46,8.46,0,1,0-13.25,9.71L69.75,45.7,86.62,32.26A8.38,8.38,0,0,0,89,26.39a8.46,8.46,0,0,0-16.28-3.23Z"/></g><circle class="cls-4" cx="16.23" cy="16.23" r="16.23"/><text class="cls-5" transform="translate(9.74 23.25)">2</text></svg>