<?xml version="1.0" encoding="utf-8"?>
<!-- Generator: Adobe Illustrator 22.1.0, SVG Export Plug-In . SVG Version: 6.00 Build 0)  -->
<svg version="1.1" id="Layer_1" xmlns="http://www.w3.org/2000/svg" xmlns:xlink="http://www.w3.org/1999/xlink" x="0px" y="0px"
	 viewBox="0 0 192 66" style="enable-background:new 0 0 192 66;" xml:space="preserve">
<style type="text/css">
	.st0{fill:#1B75BA;}
</style>
<title>hybrid</title>
<polygon points="77.9,24.8 62.1,24.8 62.1,37.9 55.8,37.9 55.8,6.9 62.1,6.9 62.1,20.3 77.9,20.3 77.9,6.9 84.4,6.9 84.4,37.9 
	77.9,37.9 "/>
<path d="M99.8,46.3H88.1v-3.6h12.2c0.8,0,1.5-0.3,2.1-0.7c0.8-0.6,1.3-1.5,1.2-2.5v-1.6h-7.9c-1.1,0-2.2-0.1-3.3-0.4
	c-1-0.4-1.8-1-2.5-1.8c-1.5-1.4-2.3-3.4-2.2-5.5V15.5h5.2l-0.1,14.2c0,0.5,0.1,1.1,0.2,1.6c0.2,0.5,0.5,1,0.8,1.3
	c0.4,0.5,0.9,0.8,1.5,1s1.3,0.2,1.9,0.2h6.4V15.5h5.1l0.1,23.9c0,0.9-0.1,1.8-0.5,2.6c-0.4,0.8-0.9,1.4-1.6,2
	c-0.9,0.8-1.9,1.4-3,1.8C102.5,46.1,101.2,46.3,99.8,46.3"/>
<path d="M111.9,37.5V6.7h4.9v8.5h9.4c2.5,0,4.9,1.2,6.4,3.2c1.7,2.2,2.6,4.9,2.5,7.6c0.1,2.9-0.8,5.8-2.5,8.2
	c-1.5,2.1-3.9,3.4-6.5,3.4L111.9,37.5L111.9,37.5z M116.9,18.8v14.8h6.8c1.8,0,3.5-0.9,4.5-2.4c1-1.5,1.6-3.2,1.6-5s-0.6-3.6-1.7-5
	c-1.1-1.5-2.8-2.3-4.6-2.3L116.9,18.8z"/>
<path d="M142.8,37.7h-5V15.4h5V37.7z M146.8,15.4c0.7-0.2,1.4-0.4,2.2-0.4h0.8v4.1h-6c0.4-0.9,0.9-1.8,1.5-2.6
	C145.7,16,146.2,15.6,146.8,15.4"/>
<path d="M152.9,6.8h5v4.5h-5V6.8z M152.9,15.6h5v22.3h-5V15.6z"/>
<path d="M161.1,26.2c-0.1-2.8,0.9-5.5,2.7-7.6c1.7-2.1,4.2-3.2,6.8-3.2h8.8V6.9h4.8v30.9h-14.1c-2.6,0-5-1.2-6.5-3.4
	C161.9,32,161,29.1,161.1,26.2 M172.7,19c-1.8,0-3.5,0.8-4.5,2.2c-1.2,1.4-1.8,3.3-1.8,5.1s0.5,3.6,1.5,5.1s2.7,2.5,4.5,2.5h6.8V19
	H172.7z"/>
<path d="M19,55.2h-3.2v4.1h-2V49.1h7.4c0.8,0,1.5,0.3,2,0.9s0.8,1.4,0.8,2.3c0,0.7-0.3,1.3-0.7,1.8c-0.5,0.5-1.2,0.9-2,1l2.8,4.2
	h-2.4L19,55.2z M15.8,50.4v3.5h3.4c0.5,0,1-0.1,1.4-0.4c0.5-0.3,0.8-0.8,0.8-1.3s-0.2-1-0.6-1.3c-0.5-0.3-1-0.5-1.6-0.4L15.8,50.4z"
	/>
<path d="M26.9,55.7c0-1,0.3-1.9,1-2.7c0.6-0.6,1.4-1,2.2-1h3.3v1.2h-2.3c-0.3,0-0.6,0-0.9,0.1c-0.2,0.1-0.5,0.2-0.7,0.3
	c-0.4,0.4-0.6,1-0.6,1.6h4.5v1.2h-4.5c0,0.3,0,0.6,0.1,0.9c0.1,0.2,0.2,0.4,0.4,0.6s0.4,0.3,0.7,0.4s0.6,0.1,0.9,0.1h2.4v1.1H30
	c-0.8,0-1.6-0.4-2.1-1.1C27.2,57.5,26.9,56.6,26.9,55.7"/>
<path d="M36.4,59.2v-1h4c0.3,0,0.6-0.1,0.8-0.2c0.3-0.2,0.4-0.5,0.4-0.8s-0.1-0.7-0.4-0.9c-0.3-0.2-0.7-0.3-1.1-0.3H38
	c-0.4,0-0.8-0.2-1.1-0.5c-0.4-0.3-0.6-0.8-0.6-1.2v-0.4c0-0.5,0.2-1,0.5-1.4s0.9-0.6,1.4-0.6h4.7v1h-4.2c-0.2,0-0.5,0.1-0.6,0.3
	c-0.2,0.2-0.2,0.4-0.2,0.7c0,0.3,0.1,0.6,0.3,0.8c0.2,0.2,0.5,0.3,0.7,0.3h2.3c1.1-0.1,2.1,0.7,2.1,1.8c0,0.1,0,0.2,0,0.2
	c0,0.6-0.2,1.1-0.6,1.5c-0.4,0.4-0.9,0.7-1.4,0.6L36.4,59.2L36.4,59.2z"/>
<path d="M46,55.7c0-1,0.3-1.9,1-2.7c0.6-0.7,1.4-1,2.3-1h3.2v1.2h-2.4c-0.3,0-0.6,0-0.9,0.1c-0.2,0.1-0.5,0.2-0.7,0.3
	c-0.4,0.4-0.7,1-0.6,1.6h4.5v1.2h-4.5c0,0.3,0,0.6,0.1,0.9c0.1,0.2,0.2,0.4,0.4,0.6s0.4,0.3,0.7,0.4s0.6,0.1,0.9,0.1h2.4v1.1H49
	c-0.8,0-1.6-0.4-2.1-1.1C46.4,57.5,46,56.6,46,55.7"/>
<path d="M57,59.2h-1.7v-7.3h1.6L57,59.2L57,59.2z M58.3,51.9c0.2-0.1,0.5-0.1,0.7-0.1h0.3v1.3h-2c0.1-0.3,0.3-0.6,0.5-0.9
	C57.9,52.1,58.1,52,58.3,51.9"/>
<polygon points="65.2,59.3 62.2,52 64.1,52 66.4,57.8 68.6,52 70.6,52 67.4,59.3 "/>
<path d="M73.5,57.2c0-0.6,0.2-1.1,0.5-1.5s0.8-0.6,1.4-0.6h3.9v-0.6c0-0.3-0.1-0.7-0.3-0.9c-0.1-0.2-0.3-0.3-0.5-0.4
	s-0.5-0.1-0.7-0.1h-3.7v-1.3h3.7c0.5,0,1,0,1.5,0.2c0.3,0.1,0.6,0.3,0.8,0.5c0.3,0.3,0.5,0.6,0.6,1c0.1,0.5,0.2,1,0.2,1.5v4.2h-5.3
	c-0.5,0-1.1-0.2-1.4-0.6C73.7,58.3,73.5,57.8,73.5,57.2 M76.4,56.1c-0.3,0-0.6,0.1-0.8,0.3c-0.2,0.2-0.3,0.4-0.3,0.7
	c0,0.3,0.1,0.5,0.3,0.7c0.2,0.2,0.5,0.3,0.7,0.3h3v-2H76.4z"/>
<path d="M86.8,56.8c0,0.4,0.1,0.7,0.4,1s0.7,0.4,1.1,0.4h0.4v1.1H87c-0.5,0-1-0.2-1.3-0.6c-0.2-0.2-0.3-0.5-0.4-0.7c0-0.3,0-0.7,0-1
	v-3.8H84V52h1.3v-2.9h1.6V52h2v1.2h-2L86.8,56.8z"/>
<path d="M91.8,49.1h1.7v1.5h-1.7V49.1z M91.8,51.9h1.7v7.3h-1.7V51.9z"/>
<path d="M96.5,55.5c0-1.1,0.5-2.1,1.3-2.7c0.9-0.6,1.9-1,3-0.9c1.1,0,2.2,0.3,3.1,1c0.8,0.7,1.2,1.7,1.1,2.7V56c0.1,1-0.4,2-1.2,2.7
	c-0.8,0.6-1.9,0.9-2.9,0.9c-1.1,0.1-2.2-0.2-3.1-0.9C97,57.9,96.5,56.7,96.5,55.5 M98.5,55.6c0,0.7,0.2,1.4,0.7,2
	c0.4,0.5,1.1,0.8,1.7,0.8c0.7,0,1.4-0.2,1.8-0.8c0.4-0.6,0.6-1.3,0.6-2c0-0.6-0.2-1.2-0.6-1.7c-0.5-0.5-1.1-0.8-1.8-0.7
	c-0.6,0-1.3,0.2-1.7,0.7C98.7,54.3,98.4,55,98.5,55.6"/>
<path d="M113.1,54.3c0-0.2,0-0.3-0.1-0.5c-0.1-0.1-0.2-0.3-0.3-0.3c-0.1-0.1-0.2-0.2-0.4-0.2c-0.1-0.1-0.3-0.1-0.4-0.1h-2.2v6.1
	h-1.6v-7.4h3.7c0.5,0,1,0,1.5,0.1c0.4,0.1,0.8,0.4,1.1,0.7c0.2,0.2,0.3,0.4,0.4,0.7c0.1,0.3,0.1,0.5,0.1,0.8v5.1h-1.6v-5H113.1z"/>
<path d="M123.8,59.2v-1.5h5.9c0.4,0,0.8-0.1,1.1-0.3c0.4-0.2,0.6-0.6,0.6-1.1s-0.2-0.9-0.6-1.2c-0.5-0.3-1-0.4-1.5-0.4h-3.1
	c-0.8,0-1.6-0.3-2.2-0.8c-0.6-0.5-0.9-1.2-0.9-2s0.3-1.6,0.9-2.2c0.7-0.6,1.5-0.9,2.4-0.8h6.9v1.4h-6c-0.4,0-0.7,0.2-1,0.4
	c-0.3,0.2-0.5,0.6-0.5,1s0.1,0.9,0.5,1.1c0.3,0.3,0.7,0.4,1.1,0.4h3.4c0.8-0.1,1.7,0.2,2.3,0.8c0.5,0.5,0.8,1.2,0.8,2
	s-0.3,1.6-0.9,2.2c-0.6,0.6-1.3,0.9-2.1,0.9L123.8,59.2z"/>
<path d="M140.7,62h-3.8v-1.2h4c0.2,0,0.5-0.1,0.7-0.2c0.3-0.2,0.4-0.5,0.4-0.8v-0.5h-2.7c-0.4,0-0.7,0-1.1-0.1
	c-0.3-0.1-0.6-0.3-0.8-0.6c-0.5-0.5-0.7-1.1-0.7-1.8V52h1.7v4.7c0,0.2,0,0.4,0.1,0.5c0.1,0.2,0.2,0.3,0.3,0.4
	c0.1,0.2,0.3,0.3,0.5,0.3c0.2,0.1,0.4,0.1,0.6,0.1h2.1v-6h1.7v7.8c0,0.3-0.1,0.6-0.2,0.8c-0.1,0.3-0.3,0.5-0.5,0.7
	c-0.3,0.3-0.6,0.5-1,0.6C141.5,62,141.1,62.1,140.7,62"/>
<path d="M146.7,59.2v-1h4c0.3,0,0.6-0.1,0.9-0.3c0.3-0.2,0.4-0.5,0.4-0.8s-0.1-0.7-0.4-0.9c-0.3-0.2-0.7-0.3-1.1-0.3h-2.2
	c-0.4,0-0.8-0.2-1.1-0.5c-0.4-0.3-0.6-0.8-0.6-1.2v-0.3c0-0.5,0.2-1,0.5-1.4s0.9-0.6,1.4-0.6h4.7v1H149c-0.2,0-0.5,0.1-0.6,0.3
	c-0.2,0.2-0.2,0.4-0.2,0.7c0,0.3,0.1,0.6,0.3,0.8c0.2,0.2,0.5,0.3,0.7,0.3h2.3c1.1-0.1,2.1,0.8,2.1,1.9c0,0.1,0,0.1,0,0.2
	c0,0.6-0.2,1.1-0.6,1.5c-0.4,0.4-0.9,0.7-1.4,0.6L146.7,59.2z"/>
<path d="M159.4,56.8c0,0.4,0.1,0.7,0.4,1c0.3,0.3,0.7,0.4,1.1,0.4h0.4v1.1h-1.7c-0.5,0-1-0.2-1.3-0.6c-0.2-0.2-0.3-0.5-0.4-0.7
	c-0.1-0.3-0.1-0.7-0.1-1v-3.8h-1.3V52h1.3v-2.9h1.6V52h2v1.2h-2V56.8z"/>
<path d="M164.3,55.7c0-1,0.3-1.9,1-2.7c0.6-0.6,1.3-1,2.2-1h3.2v1.2h-2.3c-0.3,0-0.6,0-0.9,0.1c-0.2,0.1-0.5,0.2-0.6,0.3
	c-0.4,0.4-0.7,1-0.6,1.6h4.5v1.2h-4.5c0,0.3,0,0.6,0.1,0.9c0.1,0.2,0.2,0.4,0.4,0.6s0.4,0.3,0.7,0.4s0.6,0.1,0.9,0.1h2.4v1.1h-3.4
	c-0.8,0-1.6-0.4-2.1-1.1C164.6,57.5,164.3,56.6,164.3,55.7"/>
<path d="M182.7,54.6c0-0.4-0.1-0.7-0.4-1c-0.2-0.3-0.6-0.4-0.9-0.4h-1.7v6.1h-1.6v-6.1h-3v6.1h-1.5v-7.4h8c0.4,0,0.8,0,1.2,0.1
	c0.3,0.1,0.6,0.3,0.8,0.5c0.4,0.4,0.6,0.9,0.7,1.4v5.3h-1.6V54.6z"/>
<path class="st0" d="M31.5,44.5c0,0,7.1,2.9,12.7-1.1s6.9-23.6-12.5-27.6c0,0,12.9-1.3,17.4,12S44.1,50.9,31.5,44.5"/>
<rect x="8.1" y="33" class="st0" width="6.1" height="6.1"/>
<rect x="5.9" y="31.1" class="st0" width="2.2" height="2.2"/>
<rect x="14.2" y="39.2" class="st0" width="3.6" height="3.6"/>
<path class="st0" d="M49.9,19.3v-6.7c0-3.4-2.8-6.2-6.2-6.2H20c-3.4,0-6.2,2.8-6.2,6.2v20.7h8.1v-4.1h4.4v4.3h-4.2V39h4v-2.4h2.7V39
	h-2.6v3.4h17.6c3.4,0,6.1-2.7,6.2-6.1v-5.1l-2.5,0.9c0,0-7.7,3.5-12.1,0.4s-8.5-13.9-15.6-14.6C19.7,17.9,41.5,1,49.9,19.3"/>
<rect x="22.4" y="42.3" class="st0" width="3.9" height="3.9"/>
</svg>
