<svg id="Layer_1" data-name="Layer 1" xmlns="http://www.w3.org/2000/svg" viewBox="0 0 30.09 44.68"><defs><style>.cls-1{fill:#383838;}</style></defs><title>icon</title><path class="cls-1" d="M23.18,13.82a6.91,6.91,0,1,1,6.91-6.91A6.92,6.92,0,0,1,23.18,13.82Zm0-12.12a5.21,5.21,0,1,0,5.21,5.21A5.22,5.22,0,0,0,23.18,1.7Z"/><path class="cls-1" d="M23.18,44.68a6.92,6.92,0,1,1,6.91-6.91A6.92,6.92,0,0,1,23.18,44.68Zm0-12.12a5.21,5.21,0,1,0,5.21,5.21A5.21,5.21,0,0,0,23.18,32.56Z"/><path class="cls-1" d="M11,25.56a5.21,5.21,0,1,1,0-6.44l1.21-1.21a6.92,6.92,0,1,0,0,8.85Z"/><path class="cls-1" d="M11.47,19.82l8.27-8.27-1.2-1.2-8.12,8.12A5.51,5.51,0,0,1,11.47,19.82Z"/><path class="cls-1" d="M10.39,26.18l8.09,8.08,1.2-1.2-8.23-8.23A5.15,5.15,0,0,1,10.39,26.18Z"/></svg>