<svg id="Layer_1" data-name="Layer 1" xmlns="http://www.w3.org/2000/svg" viewBox="0 0 226.19 191.23"><defs><style>.cls-1{fill:#414042;}.cls-2{fill:#fcc404;}</style></defs><title>icon</title><path class="cls-1" d="M135,164H117.85a4.42,4.42,0,1,0,0,8.83H135a4.8,4.8,0,1,1,0,9.6H88.85A23.23,23.23,0,0,1,71,174l-11-13.27a32.06,32.06,0,0,0-23.76-11.55V123.1H52.42a30.64,30.64,0,0,1,21.39,8.64l23.82,23a4.34,4.34,0,0,1-5.95,6.32L73,143.91a4.42,4.42,0,0,0-6,6.51l18.7,17.14a13.17,13.17,0,0,0,18.05-19.19L80,125.38a39.43,39.43,0,0,0-27.53-11.11H35.3a11,11,0,0,0-10.09-6.71H4.42A4.42,4.42,0,0,0,0,112v32.3a4.42,4.42,0,1,0,8.83,0V116.4H25.21a2.12,2.12,0,0,1,2.12,2.11v35.41A2.12,2.12,0,0,1,25.21,156H20.62a4.42,4.42,0,0,0,0,8.84h4.59A11,11,0,0,0,35.37,158a23.24,23.24,0,0,1,17.76,8.38l11,13.27a32,32,0,0,0,24.69,11.57H135A13.63,13.63,0,0,0,135,164Z"/><path class="cls-1" d="M221.77,40.81a4.4,4.4,0,0,0-4.41,4.41V74.83H201a2.11,2.11,0,0,1-2.11-2.11V37.31A2.11,2.11,0,0,1,201,35.2h4.26a4.42,4.42,0,0,0,0-8.84H201a11,11,0,0,0-10.15,6.86,23.18,23.18,0,0,1-17.77-8.38L162,11.58A32,32,0,0,0,137.34,0H91.2a13.63,13.63,0,0,0,0,27.26h18.87a4.42,4.42,0,1,0,0-8.83H91.2a4.8,4.8,0,0,1,0-9.6h46.15a23.23,23.23,0,0,1,17.89,8.39l11,13.27A32.06,32.06,0,0,0,190,42V68.13H173.77a30.66,30.66,0,0,1-21.39-8.64l-23.81-23a4.34,4.34,0,0,1,5.94-6.33l18.7,17.14a4.42,4.42,0,0,0,6-6.51l-18.7-17.14a13.17,13.17,0,0,0-18,19.19l23.82,23A39.42,39.42,0,0,0,173.77,77h17.12A11,11,0,0,0,201,83.67h20.79a4.42,4.42,0,0,0,4.42-4.42v-34A4.41,4.41,0,0,0,221.77,40.81Z"/><path class="cls-2" d="M117.47,87.86a4.41,4.41,0,0,1-8.16,0A11.68,11.68,0,1,0,91,101.27L113.38,119l23.29-18.55a11.57,11.57,0,0,0,3.27-8.1,11.68,11.68,0,0,0-22.47-4.47Z"/><circle class="cls-1" cx="4.42" cy="160.45" r="4.4"/><circle class="cls-1" cx="221.77" cy="30.78" r="4.4"/></svg>